<?xml version="1.0" encoding="utf-8"?>
<!-- Generator: Adobe Illustrator 23.0.3, SVG Export Plug-In . SVG Version: 6.00 Build 0)  -->
<svg version="1.1" id="Layer_1" xmlns="http://www.w3.org/2000/svg" xmlns:xlink="http://www.w3.org/1999/xlink" x="0px" y="0px"
	 viewBox="0 0 210 84" style="enable-background:new 0 0 210 84;" xml:space="preserve">
<style type="text/css">
	.st0{fill:#101820;}
	.st1{fill:url(#SVGID_1_);}
</style>
<g>
	<g>
		<g>
			<path class="st0" d="M21.19,15.94h-3.85c-0.5-2.73-2.52-4.63-5.25-4.63c-3.31,0-6.04,2.85-6.04,8.44c0,5.67,2.73,8.48,6.04,8.48
				c3.02,0,4.92-2.19,5.42-4.59h3.93c-0.62,4.43-4.59,7.69-9.56,7.69c-6.16,0-9.85-4.8-9.85-11.58c0-6.62,3.85-11.58,10.22-11.58
				C17.43,8.16,20.86,11.93,21.19,15.94z"/>
			<path class="st0" d="M38.81,8.54v3.97c1.08-2.48,3.23-3.97,5.96-3.97h3.81v3.48h-3.76c-4.26,0-5.92,2.81-5.92,7.69v7.82h7.61
				v3.27H28.8v-3.27h6.29V11.8h-6.33V8.54H38.81z"/>
			<path class="st0" d="M55.32,19.75c0-7.16,4.22-11.62,10.09-11.62c6.49,0,10.22,4.76,9.93,12.7H59.33c0,4.47,2.48,7.4,6,7.4
				c3.31,0,4.96-1.57,5.75-4.1h3.93c-0.91,4.22-4.38,7.2-9.6,7.2C58.67,31.33,55.32,26.32,55.32,19.75z M59.37,17.68h11.91
				c0.04-3.64-1.99-6.41-5.87-6.41C61.81,11.27,59.54,13.38,59.37,17.68z"/>
			<path class="st0" d="M82.53,25c0-5.29,5.63-6.91,14.73-7.9v-0.95c0-3.85-2.11-5.01-5.01-5.01c-3.43,0-5.05,1.7-5.29,4.43h-3.89
				c0.37-4.8,4.59-7.49,9.22-7.49c6.16,0,8.81,2.73,8.73,8.89l-0.04,5.42c-0.04,3.72,0.17,6.91,0.29,8.4h-3.64l-0.04-3.27
				c-1.37,2.32-3.68,3.81-7.82,3.81C85.76,31.33,82.53,29.01,82.53,25z M97.55,20.12c-6.78,0.66-10.92,1.61-10.92,4.8
				c0,2.11,1.53,3.35,4.22,3.35c3.39,0,6.7-1.61,6.7-7.53V20.12z"/>
			<path class="st0" d="M113.51,2.95h3.81v5.58h9.1v3.27h-9.1v12.87c0,2.27,0.12,2.85,2.23,2.85h6.87v3.27h-7.69
				c-4.05,0-5.21-0.95-5.21-5.58V11.8h-6.33V8.54h6.33V2.95z"/>
			<path class="st0" d="M147.72,8.54v18.99h6.33v3.27h-16.42v-3.27h6.29V11.8h-6.29V8.54H147.72z M147.72,0.8v4.51h-3.81V0.8H147.72
				z"/>
			<path class="st0" d="M172.33,25.58l5.71-17.04h3.97l-8.02,22.26h-3.64l-8.03-22.26h4.26L172.33,25.58z"/>
			<path class="st0" d="M188.92,19.75c0-7.16,4.22-11.62,10.09-11.62c6.49,0,10.22,4.76,9.93,12.7h-16.01c0,4.47,2.48,7.4,6,7.4
				c3.31,0,4.96-1.57,5.75-4.1h3.93c-0.91,4.22-4.38,7.2-9.6,7.2C192.27,31.33,188.92,26.32,188.92,19.75z M192.97,17.68h11.91
				c0.04-3.64-1.99-6.41-5.87-6.41C195.41,11.27,193.14,13.38,192.97,17.68z"/>
			<path class="st0" d="M6.63,48.59h3.81v5.58h9.1v3.27h-9.1V70.3c0,2.28,0.12,2.85,2.23,2.85h6.87v3.27h-7.69
				c-4.05,0-5.21-0.95-5.21-5.58v-13.4H0.3v-3.27h6.33V48.59z"/>
			<path class="st0" d="M47.25,62.28v14.15h-3.81V63.6c0-3.6-0.25-6.62-4.38-6.62c-3.43,0-5.34,2.61-5.34,7.36v12.08h-3.81V46.44
				h3.81v10.88c1.16-1.94,3.14-3.52,6.58-3.52C45.68,53.8,47.25,57.36,47.25,62.28z"/>
			<path class="st0" d="M55.32,65.38c0-7.16,4.22-11.62,10.09-11.62c6.49,0,10.22,4.76,9.93,12.7H59.33c0,4.47,2.48,7.4,6,7.4
				c3.31,0,4.96-1.57,5.75-4.09h3.93c-0.91,4.22-4.38,7.2-9.6,7.2C58.67,76.96,55.32,71.96,55.32,65.38z M59.37,63.31h11.91
				c0.04-3.64-1.99-6.41-5.87-6.41C61.81,56.9,59.54,59.01,59.37,63.31z"/>
			<path class="st0" d="M92.01,53.8c5.09,0,10.3,3.52,10.3,11.58s-5.21,11.58-10.3,11.58c-5.09,0-10.3-3.52-10.3-11.58
				S86.92,53.8,92.01,53.8z M92.01,73.78c3.39,0,6.29-2.48,6.29-8.4s-2.9-8.4-6.29-8.4s-6.29,2.48-6.29,8.4S88.61,73.78,92.01,73.78
				z"/>
			<path class="st0" d="M118.97,54.17v3.97c1.08-2.48,3.23-3.97,5.96-3.97h3.81v3.47h-3.76c-4.26,0-5.92,2.81-5.92,7.69v7.82h7.61
				v3.27h-17.7v-3.27h6.29V57.44h-6.33v-3.27H118.97z"/>
			<path class="st0" d="M135.27,83.67V80.4h4.01c2.32,0,3.06-0.29,4.22-3.47l0.17-0.5l-8.31-22.25h4.18l6.04,17.17l5.92-17.17h3.93
				l-8.23,23.21c-1.57,4.38-2.81,6.29-7.53,6.29H135.27z"/>
		</g>
	</g>
	<g>
		<linearGradient id="SVGID_1_" gradientUnits="userSpaceOnUse" x1="168.947" y1="65.3919" x2="187.5798" y2="65.3919">
			<stop  offset="0" style="stop-color:#CEAA78"/>
			<stop  offset="1" style="stop-color:#A98244"/>
		</linearGradient>
		<path class="st1" d="M175.93,63.11v-7.17h4.7v7.17h6.95v4.56h-6.95v7.17h-4.7v-7.17h-6.98v-4.56H175.93z"/>
	</g>
</g>
</svg>
