<?xml version="1.0" standalone="no"?>
<!DOCTYPE svg PUBLIC "-//W3C//DTD SVG 20010904//EN"
 "http://www.w3.org/TR/2001/REC-SVG-20010904/DTD/svg10.dtd">
<svg version="1.0" xmlns="http://www.w3.org/2000/svg"
 width="1136.000000pt" height="1136.000000pt" viewBox="0 0 1136.000000 1136.000000"
 preserveAspectRatio="xMidYMid meet">
<metadata>
Created by potrace 1.11, written by Peter Selinger 2001-2013
</metadata>
<g transform="translate(0.000000,1136.000000) scale(0.100000,-0.100000)"
fill="#000000" stroke="none">
<path d="M821 5338 l0 -2148 1034 0 1034 0 -9 30 c-5 17 -5 30 0 30 5 0 5 13
0 30 -5 17 -5 30 0 30 5 0 5 13 0 29 -4 16 -6 32 -3 35 8 8 9 186 1 186 -4 0
-3 14 2 30 5 17 6 30 2 30 -4 0 -7 23 -7 50 0 28 2 50 5 50 3 0 5 31 5 70 0
38 -4 70 -8 70 -5 0 -6 4 -3 9 9 14 -5 42 -16 35 -13 -9 -614 -8 -627 0 -6 4
-11 4 -11 -1 0 -4 -72 -8 -160 -8 -88 0 -160 3 -160 7 0 4 -14 3 -30 -2 -31
-9 -31 -9 -28 30 1 22 -1 42 -5 46 -3 4 -2 15 3 25 7 12 7 20 0 24 -6 4 -8 10
-5 15 8 14 9 165 1 179 -4 6 -3 11 3 11 9 0 9 25 0 35 -3 2 -3 27 1 55 3 27 3
55 -1 62 -4 6 -4 21 1 33 5 12 4 28 0 35 -5 8 -4 22 1 31 6 11 5 20 -1 24 -5
3 -6 13 -3 22 8 21 8 81 0 89 -3 4 -2 15 3 25 7 12 7 20 0 24 -6 4 -8 10 -5
15 8 14 9 165 1 179 -4 6 -3 11 3 11 9 0 9 25 0 34 -3 3 -2 30 1 61 3 30 3 55
-2 55 -4 0 -3 11 2 25 5 13 6 26 1 29 -4 3 -5 28 -1 56 4 27 3 50 -2 50 -4 0
-3 11 2 25 5 13 6 26 1 29 -4 3 -5 28 -1 56 4 27 3 50 -2 50 -4 0 -3 11 2 25
5 13 6 26 1 29 -4 3 -5 28 -1 56 4 27 3 50 -2 50 -4 0 -3 11 2 25 6 15 6 26
-1 30 -5 4 -7 10 -4 15 5 9 10 128 5 145 -1 6 -1 12 0 15 6 17 5 52 -2 56 -4
3 -6 9 -3 14 8 14 9 165 1 179 -4 6 -3 11 3 11 8 0 8 20 1 40 -1 3 -2 9 -1 14
5 28 3 165 -3 175 -4 6 -3 11 3 11 8 0 8 20 1 40 -1 3 -2 9 -1 14 5 28 3 165
-3 175 -4 6 -3 11 3 11 8 0 8 20 1 40 -1 3 -2 9 -1 14 5 27 3 165 -3 174 -3 6
-1 12 5 14 7 2 7 12 0 30 -8 22 -7 28 7 32 9 2 241 4 515 4 317 0 502 3 508 9
11 11 18 153 7 153 -4 0 -3 14 2 30 5 17 6 30 2 30 -8 0 -7 68 1 76 3 3 2 17
-3 30 -6 14 -6 26 0 29 6 3 6 15 0 30 -6 15 -6 25 0 25 5 0 5 12 0 30 -5 17
-5 30 0 30 5 0 5 13 0 30 -5 17 -5 30 0 30 5 0 5 12 1 28 -5 15 -5 37 0 49 5
13 4 25 -1 28 -7 4 -6 13 0 26 7 13 7 19 0 19 -5 0 -9 6 -8 13 2 9 -208 12
-1024 13 l-1027 0 0 -2148z"/>
<path d="M3520 7466 c-4 -12 -4 -31 1 -43 5 -14 5 -23 -1 -23 -6 0 -6 -10 0
-26 6 -14 7 -23 2 -21 -4 3 -7 -8 -7 -23 0 -15 3 -26 7 -23 5 2 4 -7 -2 -21
-6 -16 -6 -26 0 -26 6 0 6 -9 0 -25 -6 -16 -6 -25 0 -25 6 0 6 -10 0 -26 -7
-16 -7 -23 0 -19 7 4 7 -3 0 -19 -6 -16 -6 -26 0 -26 6 0 6 -9 0 -25 -6 -15
-6 -25 0 -25 5 0 5 -12 0 -30 -5 -19 -5 -28 1 -25 5 4 5 -4 -1 -19 -6 -17 -6
-26 1 -26 6 0 6 -7 -1 -20 -6 -11 -7 -20 -3 -20 10 0 8 -63 -2 -79 -3 -6 -1
-11 5 -11 8 0 8 -6 0 -20 -8 -14 -8 -20 0 -20 8 0 8 -6 0 -20 -8 -14 -8 -20 0
-20 8 0 8 -6 0 -20 -8 -14 -8 -20 0 -20 8 0 8 -6 0 -20 -8 -14 -8 -20 0 -20 8
0 8 -6 0 -20 -8 -14 -8 -20 0 -20 8 0 8 -6 0 -20 -8 -14 -8 -20 0 -20 7 0 7
-6 0 -21 -8 -15 -8 -24 0 -34 8 -9 8 -15 0 -20 -6 -4 -7 -12 -1 -23 6 -11 6
-24 0 -35 -7 -11 -6 -17 1 -17 7 0 8 -6 0 -19 -7 -13 -7 -22 0 -26 7 -4 7 -13
0 -24 -6 -12 -5 -22 1 -28 8 -8 7 -13 0 -17 -8 -5 -8 -13 -1 -26 7 -13 7 -21
0 -25 -6 -4 -7 -13 -1 -23 6 -11 6 -24 0 -35 -7 -11 -6 -17 1 -17 7 0 8 -6 0
-19 -7 -13 -7 -22 0 -26 7 -4 7 -12 0 -25 -7 -13 -7 -21 0 -25 7 -4 7 -12 0
-25 -7 -13 -7 -21 0 -25 7 -5 8 -11 1 -19 -6 -7 -6 -17 -1 -26 5 -8 5 -21 -1
-32 -5 -10 -6 -18 -2 -18 10 0 8 -63 -2 -79 -3 -6 -1 -11 5 -11 8 0 8 -6 0
-20 -8 -14 -8 -20 0 -20 8 0 8 -6 0 -20 -8 -14 -8 -20 0 -20 8 0 8 -6 0 -20
-8 -14 -8 -20 0 -20 8 0 8 -6 0 -20 -8 -14 -8 -20 0 -20 8 0 8 -6 0 -20 -8
-14 -8 -20 0 -20 8 0 8 -6 0 -20 -8 -14 -8 -20 0 -20 7 0 8 -7 3 -17 -10 -22
-10 -54 0 -70 4 -6 3 -14 -2 -18 -7 -4 -7 -15 -1 -30 6 -16 6 -25 0 -25 -6 0
-6 -10 0 -26 6 -14 7 -23 2 -21 -4 3 -7 -8 -7 -23 0 -15 3 -26 7 -23 5 2 4 -7
-2 -21 -6 -16 -6 -26 0 -26 6 0 6 -9 0 -25 -6 -16 -6 -25 0 -25 6 0 6 -10 0
-26 -7 -16 -7 -23 0 -19 7 4 7 -3 0 -19 -6 -16 -6 -26 0 -26 6 0 6 -9 0 -25
-6 -15 -6 -25 0 -25 5 0 5 -12 0 -30 -5 -19 -5 -28 1 -25 5 4 5 -4 -1 -19 -6
-17 -6 -26 1 -26 6 0 6 -7 -1 -20 -6 -12 -7 -20 -1 -20 6 0 6 -11 1 -30 -5
-18 -5 -32 1 -36 7 -4 6 -10 0 -18 -6 -7 -6 -17 -1 -26 5 -8 5 -21 -1 -31 -6
-12 -5 -20 1 -24 6 -4 7 -11 4 -17 -10 -16 -11 -67 -2 -61 5 2 4 -7 -2 -21 -6
-16 -6 -26 0 -26 6 0 6 -9 0 -25 -5 -14 -6 -25 -2 -25 4 0 7 -13 7 -30 0 -16
-3 -30 -7 -30 -4 0 -3 -11 2 -25 6 -16 6 -25 0 -25 -6 0 -6 -9 0 -25 5 -14 6
-25 2 -25 -9 0 -8 -47 1 -56 3 -4 2 -15 -3 -25 -7 -12 -7 -20 0 -24 7 -4 7
-12 0 -25 -7 -13 -7 -21 0 -25 7 -4 7 -12 0 -25 -7 -13 -7 -21 0 -25 7 -5 8
-11 1 -19 -6 -7 -6 -17 -1 -26 5 -8 5 -21 -1 -31 -6 -12 -5 -20 1 -24 6 -4 7
-11 4 -17 -10 -16 -11 -67 -2 -61 5 2 4 -7 -2 -21 -6 -16 -6 -26 0 -26 6 0 6
-9 0 -25 -6 -16 -6 -25 0 -25 6 0 6 -9 0 -25 -6 -16 -6 -25 0 -25 5 0 7 -7 4
-15 -4 -8 -2 -16 2 -16 5 -1 258 -2 562 -3 l553 -1 -1 35 c-1 28 -2 411 -2
505 1 11 1 119 1 240 0 245 0 229 1 289 l2 44 531 -1 532 -2 41 -40 c41 -40
192 -180 292 -270 29 -27 70 -65 91 -84 40 -39 233 -216 261 -241 15 -13 61
-55 250 -230 15 -14 71 -65 125 -115 54 -49 108 -99 119 -110 20 -19 37 -20
748 -20 401 0 728 2 728 5 0 3 -26 28 -57 55 -32 28 -80 71 -108 96 -27 25
-68 61 -89 80 -22 19 -49 43 -60 54 -12 11 -59 54 -106 95 -47 41 -94 84 -105
95 -12 11 -54 49 -95 85 -41 35 -89 78 -106 95 -17 16 -60 55 -95 85 -34 30
-73 64 -85 75 -12 11 -50 45 -84 75 -33 30 -73 66 -88 80 -15 14 -66 59 -112
100 -155 138 -166 150 -147 151 9 1 20 2 25 3 4 1 30 6 57 10 28 4 88 17 135
28 47 11 92 21 100 23 8 2 29 9 45 15 17 6 38 13 48 15 35 7 271 127 287 146
3 3 12 10 21 15 49 27 145 116 212 194 46 55 127 185 127 205 0 8 5 15 10 15
6 0 10 6 10 13 0 8 7 28 15 45 9 17 18 41 21 54 3 13 6 28 7 33 2 6 6 16 10
23 5 6 6 12 3 12 -2 0 0 15 5 33 33 115 32 486 -2 550 -5 9 -7 17 -5 17 3 0
-1 18 -9 40 -8 22 -12 40 -8 40 3 0 1 6 -5 13 -6 6 -11 15 -11 19 -3 20 -16
49 -52 123 -89 183 -247 341 -444 443 -49 26 -147 70 -158 72 -1 0 -42 14 -91
30 -48 17 -107 32 -130 35 -22 2 -41 4 -41 5 0 1 -7 3 -15 5 -70 15 -119 22
-215 32 -33 3 -822 7 -1753 8 l-1694 2 -8 -21z m3150 -800 c63 -8 94 -13 98
-16 1 -2 5 -3 10 -4 4 -1 30 -10 57 -20 58 -23 99 -49 137 -91 42 -45 48 -53
48 -65 0 -6 7 -24 15 -41 13 -24 28 -110 28 -154 -2 -261 -175 -391 -515 -390
-60 0 -108 -3 -108 -7 0 -4 -6 -5 -12 -3 -21 8 -108 11 -108 4 0 -3 -17 -3
-37 0 -21 4 -49 5 -63 3 -14 -1 -34 -2 -45 -2 -11 0 -55 1 -98 3 -42 1 -77 -1
-77 -5 0 -4 -7 -5 -14 -2 -22 9 -146 10 -146 2 0 -4 -6 -5 -14 -2 -22 8 -186
10 -186 2 0 -4 -6 -5 -13 -2 -20 7 -307 10 -307 2 0 -3 -8 -4 -17 -2 -29 8
-223 10 -223 2 0 -3 -8 -4 -17 -2 -33 8 -223 9 -223 1 0 -5 -4 -6 -9 -3 -5 4
-35 6 -68 6 -98 -1 -107 0 -116 9 -4 4 -8 17 -8 27 -1 94 -1 494 0 631 l1 122
28 3 c55 6 1949 0 2002 -6z"/>
<path d="M8664 7479 c-11 -4 -14 -8 -9 -8 12 -1 13 -160 1 -179 -4 -6 -4 -12
1 -12 9 0 8 -432 -1 -455 -3 -8 -1 -15 4 -15 6 0 9 -3 9 -7 -1 -5 -1 -13 0
-18 1 -7 175 -10 512 -10 281 0 514 -2 519 -5 5 -3 8 -651 7 -1440 l-2 -1435
-520 0 -520 0 -1 -55 c0 -31 -3 -61 -8 -68 -4 -6 -4 -12 1 -12 10 0 9 -123 -1
-139 -4 -6 -4 -11 1 -11 10 0 9 -102 -1 -118 -4 -7 -4 -12 1 -12 10 0 10 -91
-1 -108 -4 -6 -4 -12 1 -12 10 0 10 -91 -1 -108 -4 -6 -3 -12 2 -12 5 0 7 -12
4 -27 l-4 -28 1024 1 c564 0 1030 4 1036 8 9 5 9 13 2 26 -7 13 -7 21 0 25 6
4 7 13 1 24 -6 10 -6 23 -1 31 5 8 5 21 0 31 -5 9 -7 18 -5 21 7 7 11 108 4
108 -3 0 -3 20 1 45 4 25 3 48 -1 51 -5 2 -4 15 1 28 4 12 4 29 0 36 -5 8 -6
18 -3 23 8 14 9 147 1 147 -4 0 -3 12 2 26 7 17 7 32 0 44 -7 13 -7 21 0 25 6
4 7 13 1 24 -6 10 -6 23 -1 31 5 8 5 21 0 31 -5 9 -7 18 -5 21 7 7 11 108 4
108 -3 0 -3 20 1 45 4 25 3 48 -1 51 -5 2 -4 15 1 28 4 12 4 29 0 36 -5 8 -6
18 -3 24 9 13 9 76 1 76 -4 0 -4 11 1 23 5 13 5 30 1 37 -5 8 -5 21 0 29 4 9
9 18 11 21 1 3 -3 15 -9 27 -8 14 -9 24 -2 28 6 4 7 13 1 24 -6 10 -6 23 -1
31 5 8 5 21 0 31 -5 9 -7 18 -5 21 7 7 11 108 4 108 -3 0 -3 20 1 45 4 25 3
48 -1 51 -5 2 -4 15 1 28 4 12 4 29 0 36 -5 8 -6 18 -3 23 8 14 9 147 1 147
-4 0 -3 12 2 26 7 17 7 32 0 44 -7 13 -7 21 0 25 6 4 7 13 1 24 -6 10 -6 23
-1 31 5 8 5 21 0 31 -5 9 -7 18 -5 21 7 7 11 108 4 108 -3 0 -3 20 1 45 4 25
3 48 -1 51 -5 2 -4 15 1 28 4 12 4 29 0 36 -5 8 -6 18 -3 24 9 13 9 76 1 76
-4 0 -4 11 1 23 5 13 5 30 1 37 -5 8 -5 21 0 29 4 9 9 18 11 21 1 3 -3 15 -9
27 -8 14 -9 24 -2 28 6 4 7 13 1 24 -6 10 -6 23 -1 31 5 8 5 21 0 31 -5 9 -7
18 -5 21 7 7 11 108 4 108 -3 0 -3 20 1 45 4 25 3 48 -1 51 -5 2 -4 15 1 28 4
12 4 29 0 36 -5 8 -6 18 -3 23 8 14 9 147 1 147 -4 0 -3 12 2 26 7 17 7 32 0
44 -7 13 -7 21 0 25 6 4 7 13 1 24 -6 10 -6 23 -1 31 5 8 5 21 0 31 -5 9 -7
18 -5 21 7 7 11 108 4 108 -3 0 -3 20 1 45 4 25 3 48 -1 51 -5 2 -4 15 1 28 4
12 4 29 0 36 -5 8 -6 18 -3 24 9 13 9 76 1 76 -4 0 -4 11 1 23 5 13 5 30 1 37
-5 8 -5 21 0 29 10 20 10 32 -1 53 -6 10 -5 19 1 23 6 4 7 13 1 24 -6 10 -6
23 -1 31 5 8 5 21 0 31 -5 9 -7 18 -5 21 7 7 11 108 4 108 -3 0 -3 20 1 45 4
25 3 45 -1 45 -4 0 -4 14 1 30 5 17 5 30 0 30 -4 0 -6 8 -3 18 4 18 -34 18
-1015 18 -561 0 -1028 -3 -1038 -7z"/>
</g>
</svg>
