<svg xmlns="http://www.w3.org/2000/svg" xmlns:xlink="http://www.w3.org/1999/xlink" viewBox="0 0 419 99"><defs><mask id="a" x="146" y="45.06" width="12.74" height="10.59" maskUnits="userSpaceOnUse"><polygon points="146 45.05 158.74 45.05 158.74 55.65 146 55.65 146 45.05" style="fill:#fff;fill-rule:evenodd"/></mask><mask id="b" x="199.45" y="0.55" width="10.98" height="16.96" maskUnits="userSpaceOnUse"><polygon points="199.45 0.55 210.43 0.55 210.43 17.51 199.45 17.51 199.45 0.55" style="fill:#fff;fill-rule:evenodd"/></mask><mask id="c" x="231.48" y="46.19" width="13.09" height="10.36" maskUnits="userSpaceOnUse"><polygon points="231.47 46.19 244.57 46.19 244.57 56.55 231.47 56.55 231.47 46.19" style="fill:#fff;fill-rule:evenodd"/></mask><mask id="d" x="198" y="86.25" width="11.6" height="12.78" maskUnits="userSpaceOnUse"><polygon points="198 86.25 209.6 86.25 209.6 99.03 198 99.03 198 86.25" style="fill:#fff;fill-rule:evenodd"/></mask></defs><g style="isolation:isolate"><text transform="translate(-1 57)" style="isolation:isolate;font-size:24px;fill:#039681;font-family:ArialMT, Arial">Powered by</text></g><g style="mask:url(#a)"><path d="M154.59,45.06l0,2.15a3,3,0,0,1,2.48,3c0,1.81-1.59,3.28-4.71,3.24s-4.62-1.57-4.59-3.38a2.91,2.91,0,0,1,2.59-2.84l0-2.1A4.75,4.75,0,0,0,146,50c-.05,3.49,2.65,5.64,6.29,5.7s6.4-1.92,6.45-5.3A5.07,5.07,0,0,0,154.59,45.06Z" style="fill:#fff;fill-rule:evenodd"/></g><path d="M152.09,32.39l7.6,3.79-1.51,3.06,1.58.79L164,31.41l-1.58-.78-1.82,3.7-3.78-1.89c-2.36-1.18-3.32-2.66-2.3-4.74l.91-1.83L153.75,25l-.91,1.86a3.4,3.4,0,0,0,.49,3.85l-1.92-.95L149,34.68l1.58.79Z" style="fill:#fff;fill-rule:evenodd"/><path d="M165.1,13.52a3.13,3.13,0,0,1,4.64.74l-5.06,3.88c-1.37-1.83-1.11-3.45.42-4.62m6.72,8.3a4.74,4.74,0,0,0,1.66-6.11L171.81,17a2.78,2.78,0,0,1-1.07,3.57c-1.49,1.14-3.53.74-5-1.11l6.81-5.23c-2.54-3.38-5.72-4.13-8.48-2-2.49,1.91-2.79,5.14-.39,8.1,2.2,2.72,5.3,3.7,8.17,1.5" style="fill:#fff;fill-rule:evenodd"/><path d="M188.69,9.34c.74,3.14-.89,4.4-2.76,4.81-1.48.32-2.48-.15-2.75-1.28-.39-1.69,1.77-2.69,5.43-3.86ZM182.2,7.87c-.21-1.48.47-2.57,2.36-3,1.6-.35,2.91,0,3.39,2.06l.12.5c-4.9,1.63-7.8,3.16-7.13,6,.5,2.13,2.57,3,4.78,2.49s3.38-1.57,3.84-3l.43,1.73,2-.44c-.26-.78-.77-2.44-1.21-4.43l-.66-2.88c-.72-3.28-2.53-4.41-5.93-3.67-2.55.56-4.55,2.5-4.15,5.09Z" style="fill:#fff;fill-rule:evenodd"/><g style="mask:url(#b)"><path d="M206.16,1,204.07.55l-.72,3.07-3.48-.83-.42,1.8,3.47.82-1.74,7.36c-.6,2.54-.09,3.21,2.14,3.74l4.22,1,.43-1.79-3.77-.9c-1.16-.27-1.15-.6-.86-1.85L205,5.9l5,1.19.42-1.8-5-1.18Z" style="fill:#fff;fill-rule:evenodd"/></g><polygon points="223.18 24.65 220.46 22.5 227 14.46 222.66 11.03 221.54 12.42 224.24 14.55 218.83 21.21 216.13 19.08 215 20.46 222.06 26.03 223.18 24.65" style="fill:#fff;fill-rule:evenodd"/><polygon points="230 11.24 228.46 10.03 227 11.82 228.54 13.03 230 11.24" style="fill:#fff;fill-rule:evenodd"/><polygon points="229.88 36.03 243 34.69 242.04 32.74 232.1 33.98 239.25 27.12 238.22 25.03 229 34.25 229.88 36.03" style="fill:#fff;fill-rule:evenodd"/><g style="mask:url(#c)"><path d="M239.2,54.44l0-6.16c2.43.06,3.63,1.23,3.64,3.09,0,2-1.53,3.07-3.59,3.07M238,46.19c-3.71,0-6.52,1.78-6.48,5.27a4.83,4.83,0,0,0,4.1,4.93l0-2a2.83,2.83,0,0,1-2.34-3c0-1.82,1.63-3.11,4.15-3.13l.08,8.28c4.48.11,7.15-1.83,7.12-5.19,0-3-2.57-5.2-6.61-5.17" style="fill:#fff;fill-rule:evenodd"/></g><path d="M241.94,67.84,240.43,67l-1.53,3-6.2-3.35c-2.14-1.15-2.86-.83-3.84,1.1L227,71.48l1.51.82L230.17,69c.51-1,.81-.92,1.86-.35L238,71.87l-2.19,4.35,1.51.81,2.2-4.35,2.58,1.39.92-1.82-2.58-1.39Z" style="fill:#fff;fill-rule:evenodd"/><path d="M220.09,79.26l4.11,5.14c1.61,2,1.64,3.75.1,4.86-1.86,1.33-3,.12-4.23-1.41l-4.36-5.46L214,83.61l4.81,6c1.68,2.09,3.59,3.1,6,1.37a3.7,3.7,0,0,0,1.77-3.61l3.7,4.63L232,90.81,221.8,78Z" style="fill:#fff;fill-rule:evenodd"/><g style="mask:url(#d)"><path d="M204.84,97.19a3.21,3.21,0,0,1-4-2.75L207.4,93c.42,2.33-.58,3.73-2.56,4.15m-2.41-10.78C199.55,87,198,89,198,91.4l2.17-.46a3,3,0,0,1,2.67-2.87c1.94-.41,3.66.87,4.2,3.27l-8.82,1.88c.8,4.3,3.42,6.42,7,5.66,3.24-.69,5-3.58,4.16-7.43-.79-3.53-3.24-5.83-6.95-5" style="fill:#fff;fill-rule:evenodd"/></g><path d="M188.7,93.38c-.74,3.23-2.53,4.19-4.26,3.74s-2.89-2.2-2.14-5.43,2.53-4.2,4.26-3.74,2.89,2.2,2.14,5.43M187,86.21c-2.6-.68-5.69.53-6.71,4.94s1.2,7,3.79,7.71,5.7-.54,6.71-4.94-1.2-7-3.79-7.71" style="fill:#fff;fill-rule:evenodd"/><path d="M166.41,78.46l3.21,2.7-2.69,3.41c-1.68,2.12-3.35,2.76-5.15,1.24l-1.58-1.33L159,86l1.61,1.35a3.32,3.32,0,0,0,3.87.39l-1.36,1.73L167.36,93l1.12-1.42-2.67-2.25,5.41-6.84,2.65,2.23L175,83.33,167.53,77Z" style="fill:#fff;fill-rule:evenodd"/><path d="M162.82,68c1.82-.16,2.13.13,2.66,1.24l.93,1.92L168,70.4l-1-2.1c-1.08-2.26-2.3-2.42-4.79-2.19L149,67.42l.9,1.88,9.73-1-7,6.78,1,2,8.92-9Z" style="fill:#fff;fill-rule:evenodd"/><polygon points="203 49.72 197.41 49.72 197.41 44.03 193.62 44.03 193.62 49.72 188 49.72 188 53.34 193.62 53.34 193.62 59.03 197.41 59.03 197.41 53.34 203 53.34 203 49.72" style="fill:#fff;fill-rule:evenodd"/><path d="M315.26,33.69l.58-.12c20.78-3.73,64-8.91,73.27.42,2.83,2.83,2.16,6.5-1.13,10.81a8.55,8.55,0,0,1,3.61,5.2c12.84-8.62,21.47-16.85,17.39-21.39-9.15-10.23-68.13-1-93.21,4.5l-.59.13a.23.23,0,0,0-.18.26A.23.23,0,0,0,315.26,33.69Z" style="fill:#fff"/><path d="M370,60c-5.66,4.25-12.41,8.72-19.66,13.4l-.29.18a.23.23,0,0,0-.09.14.27.27,0,0,0,0,.18.21.21,0,0,0,.3,0l.25-.13c6.14-3.39,13.22-7.41,20.29-11.54l.12-.06a10,10,0,0,1-.94-2.23Z" style="fill:#fff"/><path d="M310.71,59.48l1-5.79a13.88,13.88,0,0,0,.28-1.92c0-1.56-1.29-2.77-5.49-2.77a52.3,52.3,0,0,0-7.81.65l-1.11,3c2-.52,6-1.2,8.06-.78.78.15,1,.49.86,1.08a.8.8,0,0,1-.62.66,6.43,6.43,0,0,1-1.93.43c-1.94.17-3.36.34-4.39.51a8.41,8.41,0,0,0-2.34.65,4.23,4.23,0,0,0-1.52,1.13,3.15,3.15,0,0,0-.71,1.71,2.38,2.38,0,0,0,1.09,2.08c.75.68,1.81.86,3.7.86a10.12,10.12,0,0,0,2.79-.35,12,12,0,0,0,2.8-1.21l.05,1.49h5.8V60.7A1.09,1.09,0,0,1,310.71,59.48Zm-5-2.58a1.94,1.94,0,0,1-.5.76,3.59,3.59,0,0,1-1.18.65,4.6,4.6,0,0,1-1.43.23,2.46,2.46,0,0,1-1.4-.3.72.72,0,0,1-.31-.77,1.12,1.12,0,0,1,.47-.74,3.72,3.72,0,0,1,1.51-.48c1.05-.17,1.78-.3,2.17-.39a8.05,8.05,0,0,0,1-.27A9.89,9.89,0,0,1,305.7,56.9Z" style="fill:#fff"/><path d="M334.29,45c-1.64,0-3.12.67-3.28,1.5s1,1.5,2.68,1.5,3.12-.67,3.29-1.5S335.94,45,334.29,45Z" style="fill:#fff"/><polygon points="329 61 334.87 61 337 50 331.13 50 329 61" style="fill:#fff"/><path d="M355.38,59.44l.05,1.49h5.8l0-.2a1.11,1.11,0,0,1-.57-1.2l1-5.82a13.81,13.81,0,0,0,.28-1.93c0-1.56-1.29-2.78-5.49-2.78a51,51,0,0,0-7.81.66l-1.1,3c2-.51,5.94-1.21,8-.79.77.17,1,.52.86,1.1-.06.34-.22.51-.65.66a6.42,6.42,0,0,1-1.93.42c-1.93.17-3.36.35-4.4.51a8.55,8.55,0,0,0-2.32.66,4.09,4.09,0,0,0-1.5,1.1,3.21,3.21,0,0,0-.71,1.72,2.38,2.38,0,0,0,1.09,2.08c.76.69,1.81.86,3.7.86a10.12,10.12,0,0,0,2.79-.35A11.19,11.19,0,0,0,355.38,59.44Zm-4.51-2a1.17,1.17,0,0,1,.48-.74,3.62,3.62,0,0,1,1.5-.48c1-.17,1.78-.29,2.16-.38s.66-.17,1-.28c-.08.44-.18.88-.3,1.31a1.84,1.84,0,0,1-.5.76,3.25,3.25,0,0,1-1.18.65,4.59,4.59,0,0,1-1.42.23,2.57,2.57,0,0,1-1.41-.3.77.77,0,0,1-.31-.79Z" style="fill:#fff"/><path d="M285,53.57c.08-1.59,2-4.92,6.92-4.92a8.34,8.34,0,0,1,4.37,1.16l.72-3.87a13.9,13.9,0,0,0-5.57-.93c-6.43.09-12.61,2.92-13.37,8.68S284.68,61,287.94,61c1.89,0,3.86-.08,5.69-.26l.75-4a21,21,0,0,1-4.68.49C287,57.23,284.87,55.94,285,53.57Z" style="fill:#fff"/><path d="M348,49.57h-2.84L345.8,46,340,47.28l-.4,2.31h-2.22l-.42,2.3h2.1L337.44,61S343,61,343,61l1.68-9.12h2.75Z" style="fill:#fff"/><polygon points="367.41 60.99 370 45.16 364.73 45 362 61 367.41 60.99" style="fill:#fff"/><path d="M328.63,51.65a4,4,0,0,0-2-2.08,6.18,6.18,0,0,0-3.06-.55,8.72,8.72,0,0,0-3.2.62,4.74,4.74,0,0,0-2.07,1.41l.39-1.88h-4.95L311,64h5.59l.89-5a5.46,5.46,0,0,0,.93.8,3.77,3.77,0,0,0,1.13.43,7.86,7.86,0,0,0,1.74.19A7.63,7.63,0,0,0,326.1,59a6.48,6.48,0,0,0,2.78-4.33A5.27,5.27,0,0,0,328.63,51.65Zm-5.22,2.68a3.44,3.44,0,0,1-.65,1.46,2.78,2.78,0,0,1-1.1.91,3.56,3.56,0,0,1-1.44.28,2.29,2.29,0,0,1-1.74-.63,2.35,2.35,0,0,1-.33-2.09,2.92,2.92,0,0,1,1.12-1.88,3.36,3.36,0,0,1,2-.62,2.22,2.22,0,0,1,1.71.66,2.1,2.1,0,0,1,.4,1.91Z" style="fill:#fff"/><path d="M414,53.86c-.07-1.73-1.56-2.43-3.15-2.43-3.74,0-8.3,4.53-8.12,9.39v.33c-.45.7-1.37,2.05-2.1,2.05-.24,0-.47-.16-.47-.56a6.44,6.44,0,0,1,.34-1.8L402,55.66a12.45,12.45,0,0,0,.56-2.83,1.34,1.34,0,0,0-.4-1,1.3,1.3,0,0,0-1.06-.36c-1.46,0-3.41,1.07-7.52,5.8h-.06l.52-2.31c.27-1.28.55-2.56.82-3.49a38.67,38.67,0,0,1-4.63,1.28C390,48,387,45,382.42,45c-6.89,0-11.63,6.18-11.41,12.23.16,4.7,3.17,7.76,7.78,7.76,6.95,0,11.3-5.44,11.41-11.55.39,0,.94-.11,1.2-.11.41,0,.79.08.81.48,0,.24-.42,2-.52,2.37L390.83,60c-.35,1.56-.73,3.21-1.07,4.5H392l1.28-6c3.75-4,5.22-5.25,6.14-5.25a.63.63,0,0,1,.52.18.67.67,0,0,1,.18.52,12.24,12.24,0,0,1-.56,2.74l-1.29,4.41a9,9,0,0,0-.48,2.52,1.3,1.3,0,0,0,.42,1,1.32,1.32,0,0,0,1.07.35c1.52,0,2.64-1.47,3.62-3a3.86,3.86,0,0,0,3.89,3,7,7,0,0,0,6-4.07l-.44-.31A5.77,5.77,0,0,1,408,63.39a2.86,2.86,0,0,1-3-3,4.71,4.71,0,0,1,.14-1.45C408.7,58.9,414.13,57.71,414,53.86Zm-3.56-1.77a1.4,1.4,0,0,1,1.07.43,1.36,1.36,0,0,1,.36,1.1c.1,2.5-2.81,4.72-6.55,4.72.42-1.81,2.84-6.27,5.12-6.27ZM379.26,63.88c-2.93,0-5.17-2.9-5.29-6.42-.17-4.68,3-11.61,7.85-11.61,2.92,0,5.23,2.9,5.35,6.45C387.34,56.93,384.92,63.88,379.26,63.88Z" style="fill:#fff"/><path d="M417.93,48.56c0-.39-.3-.56-.92-.56h-1v2h.41v-.87h.45l.69.86H418l-.74-.87a.85.85,0,0,0,.49-.17A.42.42,0,0,0,417.93,48.56Zm-1.52.31v-.62h.53c.28,0,.58,0,.58.3s-.31.32-.65.32Z" style="fill:#fff"/><path d="M417,47a2,2,0,1,0,2,2,2,2,0,0,0-2-2Zm0,3.67A1.67,1.67,0,1,1,418.6,49a1.62,1.62,0,0,1-.45,1.18A1.65,1.65,0,0,1,417,50.67Z" style="fill:#fff"/></svg>