<svg xmlns="http://www.w3.org/2000/svg" viewBox="0 0 400 400"><path d="M199.19,107.85c30.61,0,34.3,0,46.35.66a63.18,63.18,0,0,1,21.29,3.92,37.6,37.6,0,0,1,21.44,21.73,61.49,61.49,0,0,1,4,21.29c.59,12.05.67,15.75.67,46.35s0,34.22-.67,46.35a61.77,61.77,0,0,1-4,21.29,37.7,37.7,0,0,1-21.66,21.66,62,62,0,0,1-21.29,4.06c-12.12.52-15.67.59-46.35.59s-34.3,0-46.35-.59a63.68,63.68,0,0,1-21.36-4.06A37.65,37.65,0,0,1,110,269.36,61.88,61.88,0,0,1,106,248c-.59-12-.67-15.67-.67-46.2s0-34.3.67-46.35a61.49,61.49,0,0,1,4-21.29A37.49,37.49,0,0,1,131.7,113,60.06,60.06,0,0,1,153,109.1c12.13-.59,15.82-.66,46.35-.66m0-20.77c-31,0-35,0-46.86.73a83.79,83.79,0,0,0-28.17,5,57.94,57.94,0,0,0-33.85,33.64,83.37,83.37,0,0,0-5.33,28.16c-.59,12.2-.73,16.11-.73,46.94s0,35,.73,46.87a85.63,85.63,0,0,0,6.07,27.79A58.38,58.38,0,0,0,125,310.54a83.65,83.65,0,0,0,28.16,5.32c12.27.59,16.12.67,46.94.67s35,0,46.87-.67a83.17,83.17,0,0,0,28.16-5.32,58.43,58.43,0,0,0,34-33.71,85.21,85.21,0,0,0,5.24-28.16c.59-12.2.74-16.12.74-46.87s0-35.11-.74-46.94a85.12,85.12,0,0,0-5.24-28.16,58.51,58.51,0,0,0-34-33.64A83.15,83.15,0,0,0,247,87.67c-12.2-.52-16.12-.67-46.87-.67Z" style="fill:#fff"/><path d="M199.19,142.59a59.14,59.14,0,1,0,59.14,59.14h0a59.14,59.14,0,0,0-59.14-59.14m0,97.06a38.3,38.3,0,1,1,38.22-38.37v.45h0a38.15,38.15,0,0,1-38.14,38.14h-.08" style="fill:#fff"/><path d="M260.11,126.84a13.83,13.83,0,1,1-13.83,13.83v-.08h0a13.83,13.83,0,0,1,13.83-13.75" style="fill:#fff"/></svg>