<svg xmlns="http://www.w3.org/2000/svg" xmlns:xlink="http://www.w3.org/1999/xlink" viewBox="0 0 273 101"><defs><mask id="a" x="0" y="45.06" width="12.74" height="10.59" maskUnits="userSpaceOnUse"><path d="M0,45.06H12.74V55.65H0Z" style="fill:#fff;fill-rule:evenodd"/></mask><mask id="b" x="53.45" y="0.55" width="10.98" height="16.96" maskUnits="userSpaceOnUse"><path d="M53.45.55h11v17h-11Z" style="fill:#fff;fill-rule:evenodd"/></mask><mask id="c" x="85.47" y="46.19" width="13.09" height="10.36" maskUnits="userSpaceOnUse"><path d="M85.47,46.19h13.1V56.55H85.47Z" style="fill:#fff;fill-rule:evenodd"/></mask><mask id="d" x="52" y="86.25" width="11.6" height="12.78" maskUnits="userSpaceOnUse"><path d="M52,86.25H63.6V99H52Z" style="fill:#fff;fill-rule:evenodd"/></mask></defs><g style="mask:url(#a)"><path d="M8.59,45.06l0,2.15a3,3,0,0,1,2.48,3C11,52,9.44,53.5,6.32,53.45S1.7,51.88,1.73,50.07a2.91,2.91,0,0,1,2.59-2.84l0-2.1A4.75,4.75,0,0,0,0,50c0,3.48,2.65,5.63,6.28,5.69s6.4-1.92,6.46-5.3A5.07,5.07,0,0,0,8.59,45.06Z" style="fill:#fff;fill-rule:evenodd"/></g><path d="M6.09,32.39l7.59,3.79-1.5,3.07,1.58.78L18,31.42l-1.58-.8L14.6,34.33l-3.78-1.89c-2.36-1.18-3.32-2.66-2.3-4.73l.91-1.84L7.75,25l-.91,1.86a3.4,3.4,0,0,0,.49,3.85l-1.92-.95L3,34.68l1.58.79Zm13-18.87a3.14,3.14,0,0,1,4.65.74l-5.06,3.88c-1.38-1.83-1.11-3.45.41-4.62m6.73,8.3a4.74,4.74,0,0,0,1.66-6.11L25.81,17a2.78,2.78,0,0,1-1.07,3.57c-1.49,1.14-3.53.74-5-1.11l6.81-5.22C24,10.85,20.8,10.1,18,12.22c-2.5,1.92-2.79,5.14-.39,8.1,2.2,2.73,5.3,3.7,8.17,1.5M42.69,9.34c.74,3.14-.89,4.4-2.76,4.81-1.48.32-2.48-.15-2.75-1.27-.39-1.7,1.77-2.7,5.43-3.87ZM36.2,7.87c-.21-1.48.47-2.57,2.36-3,1.6-.35,2.91,0,3.39,2.06l.12.5c-4.9,1.63-7.8,3.16-7.13,6,.5,2.13,2.57,3,4.78,2.49s3.38-1.57,3.84-3L44,14.67l2-.44c-.26-.78-.77-2.44-1.21-4.42l-.66-2.89C43.4,3.64,41.6,2.51,38.2,3.25c-2.55.56-4.55,2.5-4.15,5.09l2.15-.47Z" style="fill:#fff;fill-rule:evenodd"/><g style="mask:url(#b)"><path d="M60.16,1,58.07.55l-.72,3.07-3.48-.83-.42,1.8,3.47.82-1.74,7.36c-.6,2.54-.09,3.21,2.14,3.74l4.22,1L62,15.72l-3.77-.9c-1.16-.27-1.15-.6-.86-1.85L59,5.9l5,1.19.42-1.8-5-1.18Z" style="fill:#fff;fill-rule:evenodd"/></g><path d="M77.18,24.65,74.46,22.5l6.54-8L76.66,11l-1.12,1.39,2.7,2.13-5.41,6.66-2.71-2.13L69,20.46,76.06,26ZM84,11.24,82.46,10,81,11.82,82.54,13ZM83.88,36,97,34.69l-1-1.95L86.1,34l7.15-6.87-1-2.09L83,34.25Z" style="fill:#fff;fill-rule:evenodd"/><g style="mask:url(#c)"><path d="M93.2,54.44l0-6.16c2.43.06,3.63,1.23,3.64,3.09,0,2-1.53,3.07-3.59,3.07M92,46.19c-3.71,0-6.52,1.78-6.49,5.27a4.84,4.84,0,0,0,4.11,4.93l0-2a2.83,2.83,0,0,1-2.34-3c0-1.82,1.63-3.11,4.15-3.13l.08,8.28c4.48.11,7.15-1.83,7.12-5.19,0-3-2.57-5.2-6.61-5.17" style="fill:#fff;fill-rule:evenodd"/></g><path d="M95.94,67.83,94.43,67l-1.53,3L86.7,66.7c-2.14-1.15-2.86-.84-3.84,1.1L81,71.48l1.51.82L84.17,69c.51-1,.81-.92,1.86-.35l6,3.21-2.19,4.35L91.3,77l2.2-4.35,2.58,1.39L97,72.25l-2.58-1.39,1.52-3ZM74.09,79.26l4.1,5.14c1.62,2,1.65,3.75.11,4.86-1.86,1.33-3,.12-4.23-1.41l-4.36-5.46L68,83.61l4.81,6c1.68,2.09,3.59,3.1,6,1.37a3.7,3.7,0,0,0,1.77-3.61L84.29,92,86,90.81,75.8,78Z" style="fill:#fff;fill-rule:evenodd"/><g style="mask:url(#d)"><path d="M58.84,97.19a3.21,3.21,0,0,1-4-2.76L61.4,93c.42,2.33-.58,3.73-2.56,4.15M56.43,86.41C53.55,87,52,89,52,91.4l2.17-.46a3,3,0,0,1,2.68-2.87c1.93-.42,3.65.87,4.19,3.27l-8.82,1.88c.79,4.3,3.42,6.42,7,5.66,3.24-.69,5-3.59,4.16-7.43-.79-3.54-3.24-5.83-7-5" style="fill:#fff;fill-rule:evenodd"/></g><path d="M42.7,93.38c-.74,3.23-2.53,4.19-4.26,3.74s-2.89-2.2-2.14-5.43,2.53-4.2,4.26-3.74,2.89,2.2,2.14,5.43M41,86.21c-2.6-.68-5.69.53-6.71,4.94s1.2,7,3.79,7.71,5.7-.54,6.71-4.94-1.2-7-3.79-7.71M20.41,78.46l3.21,2.7-2.69,3.41c-1.68,2.12-3.35,2.76-5.15,1.24L14.2,84.48,13,86l1.6,1.35a3.34,3.34,0,0,0,3.88.39l-1.36,1.73L21.36,93l1.12-1.42-2.67-2.25,5.41-6.85,2.65,2.24L29,83.33,21.53,77ZM16.82,68c1.82-.16,2.13.13,2.67,1.24l.92,1.92L22,70.4l-1-2.1c-1.08-2.26-2.3-2.42-4.79-2.18L3,67.42l.9,1.89,9.73-1.06L6.65,75l1,2,8.92-9ZM57,49.72H51.41V44H47.62v5.69H42v3.62h5.62V59h3.79V53.34H57Z" style="fill:#fff;fill-rule:evenodd"/><path d="M169.26,33.69l.58-.12c20.78-3.73,64-8.92,73.27.41,2.83,2.84,2.16,6.51-1.13,10.82a8.55,8.55,0,0,1,3.61,5.2c12.84-8.62,21.47-16.85,17.39-21.39-9.15-10.23-68.13-1-93.21,4.5l-.59.13a.23.23,0,0,0-.18.26.23.23,0,0,0,.26.19ZM224,60c-5.66,4.25-12.41,8.71-19.66,13.4l-.28.18a.18.18,0,0,0-.1.14.27.27,0,0,0,0,.18.21.21,0,0,0,.3,0l.25-.13c6.14-3.39,13.22-7.41,20.29-11.54l.12-.06a10,10,0,0,1-.94-2.23Zm-59.33-.53,1-5.79a13.88,13.88,0,0,0,.28-1.92c0-1.56-1.29-2.77-5.49-2.77a52.41,52.41,0,0,0-7.81.65l-1.1,3c2-.52,6-1.2,8.05-.79.78.16,1,.49.86,1.09a.78.78,0,0,1-.62.65,6.09,6.09,0,0,1-1.93.44c-1.94.17-3.36.34-4.39.51a8.08,8.08,0,0,0-2.34.65,4.12,4.12,0,0,0-1.52,1.13,3.15,3.15,0,0,0-.71,1.71,2.37,2.37,0,0,0,1.09,2.08c.75.68,1.81.86,3.7.86a10.12,10.12,0,0,0,2.79-.35,12,12,0,0,0,2.8-1.21l.05,1.49h5.8V60.7a1.09,1.09,0,0,1-.52-1.22Zm-5-2.58a1.94,1.94,0,0,1-.5.76,3.59,3.59,0,0,1-1.18.65,4.6,4.6,0,0,1-1.43.23,2.46,2.46,0,0,1-1.4-.3.72.72,0,0,1-.31-.77,1.12,1.12,0,0,1,.47-.74,3.72,3.72,0,0,1,1.51-.48c1-.17,1.78-.3,2.17-.39a8.05,8.05,0,0,0,1-.27,9.89,9.89,0,0,1-.29,1.31ZM188.29,45c-1.64,0-3.12.67-3.28,1.5s1,1.5,2.68,1.5,3.12-.67,3.29-1.5-1-1.5-2.69-1.5ZM183,61h5.87L191,50h-5.87Zm26.38-1.56,0,1.49h5.81l0-.2a1.11,1.11,0,0,1-.57-1.2l1-5.82a13.81,13.81,0,0,0,.28-1.93c0-1.56-1.29-2.78-5.49-2.78a51,51,0,0,0-7.81.66l-1.1,3c2-.51,5.94-1.21,8.05-.79.77.17,1,.52.86,1.1-.06.33-.22.51-.65.66a6.42,6.42,0,0,1-1.93.42c-1.93.17-3.36.35-4.4.51a8.55,8.55,0,0,0-2.32.66,4.09,4.09,0,0,0-1.5,1.1,3.21,3.21,0,0,0-.71,1.72,2.38,2.38,0,0,0,1.09,2.08c.76.69,1.81.86,3.7.86a10.12,10.12,0,0,0,2.79-.35A11.19,11.19,0,0,0,209.38,59.44Zm-4.51-2a1.17,1.17,0,0,1,.48-.74,3.62,3.62,0,0,1,1.5-.48c1.05-.18,1.78-.29,2.16-.39a8.36,8.36,0,0,0,1-.27c-.08.44-.18.88-.3,1.31a1.84,1.84,0,0,1-.5.76,3.49,3.49,0,0,1-1.18.65,4.59,4.59,0,0,1-1.42.23,2.57,2.57,0,0,1-1.41-.3.77.77,0,0,1-.31-.79v0ZM139,53.57c.08-1.59,2-4.92,6.92-4.92a8.25,8.25,0,0,1,4.37,1.16l.72-3.87a13.9,13.9,0,0,0-5.57-.93c-6.43.09-12.61,2.92-13.37,8.68S138.68,61,141.94,61c1.89,0,3.86-.08,5.69-.26l.75-4a21,21,0,0,1-4.68.49C141,57.23,138.87,55.94,139,53.57Zm63-4h-2.84L199.8,46,194,47.28l-.4,2.31h-2.22l-.42,2.3h2.1L191.44,61s5.6,0,5.6,0l1.67-9.12h2.75Z" style="fill:#fff"/><path d="M221.41,61,224,45.16,218.73,45,216,61Zm-38.78-9.34a4,4,0,0,0-2-2.08,6.18,6.18,0,0,0-3.06-.55,8.72,8.72,0,0,0-3.2.62,4.74,4.74,0,0,0-2.07,1.41l.39-1.88h-4.95L165,64h5.59l.9-5a5,5,0,0,0,.92.8,3.77,3.77,0,0,0,1.13.43,7.24,7.24,0,0,0,1.74.18A7.62,7.62,0,0,0,180.1,59a6.48,6.48,0,0,0,2.78-4.33A5.27,5.27,0,0,0,182.63,51.65Zm-5.21,2.68a3.59,3.59,0,0,1-.66,1.46,2.71,2.71,0,0,1-1.1.91,3.56,3.56,0,0,1-1.44.28,2.29,2.29,0,0,1-1.74-.63,2.35,2.35,0,0,1-.33-2.09,2.86,2.86,0,0,1,1.11-1.88,3.42,3.42,0,0,1,2-.62,2.22,2.22,0,0,1,1.71.66,2.1,2.1,0,0,1,.4,1.91ZM268,53.86c-.07-1.73-1.56-2.43-3.15-2.43-3.74,0-8.3,4.53-8.12,9.39v.33c-.45.7-1.37,2.05-2.1,2.05-.24,0-.47-.16-.47-.56a6.44,6.44,0,0,1,.34-1.8L256,55.66a12.45,12.45,0,0,0,.56-2.83,1.34,1.34,0,0,0-.4-1,1.3,1.3,0,0,0-1.06-.36c-1.46,0-3.41,1.07-7.52,5.8h-.06l.52-2.31c.27-1.28.55-2.56.82-3.49a38.67,38.67,0,0,1-4.63,1.28C244,48,241,45,236.42,45c-6.89,0-11.62,6.18-11.41,12.23.16,4.7,3.17,7.76,7.78,7.76,7,0,11.3-5.44,11.41-11.55.39,0,.94-.11,1.2-.11s.79.08.81.48c0,.24-.42,2-.52,2.37L244.83,60c-.35,1.55-.73,3.2-1.07,4.48H246l1.28-6c3.75-4,5.22-5.25,6.14-5.25a.63.63,0,0,1,.52.18.66.66,0,0,1,.18.52,12.24,12.24,0,0,1-.56,2.74l-1.29,4.41a9,9,0,0,0-.48,2.52,1.3,1.3,0,0,0,.42,1,1.32,1.32,0,0,0,1.07.35c1.52,0,2.64-1.47,3.62-3a3.86,3.86,0,0,0,3.89,3,7,7,0,0,0,6-4.07l-.44-.31A5.77,5.77,0,0,1,262,63.39a2.87,2.87,0,0,1-2.17-.8,2.83,2.83,0,0,1-.86-2.16,4.38,4.38,0,0,1,.13-1.44c3.58-.1,9-1.28,8.88-5.13Zm-3.56-1.77a1.38,1.38,0,0,1,1.07.43,1.35,1.35,0,0,1,.36,1.09c.1,2.51-2.81,4.73-6.54,4.73.41-1.81,2.83-6.27,5.11-6.27v0ZM233.26,63.88c-2.93,0-5.17-2.9-5.29-6.41-.17-4.69,3-11.62,7.85-11.62,2.92,0,5.23,2.9,5.35,6.45C241.34,56.93,238.92,63.88,233.26,63.88Zm38.67-15.32c0-.39-.3-.56-.92-.56h-1v2h.41v-.87h.45l.69.86H272l-.74-.88a.8.8,0,0,0,.49-.16.44.44,0,0,0,.18-.39Zm-1.52.31v-.62h.53c.28,0,.58,0,.58.3s-.31.32-.65.32Z" style="fill:#fff"/><path d="M271,47a2,2,0,1,0,2,2,2,2,0,0,0-2-2Zm0,3.67a1.66,1.66,0,0,1-1.58-1,1.64,1.64,0,0,1,.33-1.83A1.66,1.66,0,0,1,272.6,49,1.61,1.61,0,0,1,271,50.67Z" style="fill:#fff"/></svg>