<svg id="Layer_1" data-name="Layer 1" xmlns="http://www.w3.org/2000/svg" viewBox="0 0 735.61 737.93"><defs><style>.cls-1{fill:#fca824;}</style></defs><path class="cls-1" d="M500.22,121.11,526,153.82l28.64,7-27.75-34.53c6.64,1.45,12.5,1.77,17.61.9a25.36,25.36,0,0,0,13.5-6.3,24.91,24.91,0,0,0,7.07-12.51,26.65,26.65,0,0,0,.51-11.19,21.89,21.89,0,0,0-4.28-9.55A29.6,29.6,0,0,0,552,80a56.58,56.58,0,0,0-14.32-5.4l-71-17.44-14.39-3.54-19,77.42,20.57,5.06L460,111.22ZM537.47,91A15.47,15.47,0,0,1,542,94.39a8.3,8.3,0,0,1,2.13,4.26,13.4,13.4,0,0,1-.33,5.37,12.34,12.34,0,0,1-2.23,4.8,9,9,0,0,1-3.85,2.8,15.13,15.13,0,0,1-5.57.87,32.89,32.89,0,0,1-7.3-1L463.63,96.4l5.62-22.89,61.26,15A31.66,31.66,0,0,1,537.47,91Z" transform="translate(-54.36 -53.63)"/><polygon class="cls-1" points="569.78 162.23 634.55 247.75 646.27 238.88 586.31 159.72 601.29 148.37 655.52 220 667.24 211.13 613.01 139.5 626.45 129.32 685.92 207.86 697.62 199 638.15 120.46 638.16 120.46 625.91 104.29 562.36 152.42 569.78 162.22 569.78 162.23"/><path class="cls-1" d="M789.06,407.57a83.36,83.36,0,0,0-4.25-20.09c-2-5.32-4.54-9.31-7.66-12a17.47,17.47,0,0,0-11.1-4.25,17.12,17.12,0,0,0-8.94,2,19,19,0,0,0-6.9,6.77,41.12,41.12,0,0,0-4.82,12.14,106.56,106.56,0,0,0-2.56,18.08L739.61,457a124.55,124.55,0,0,1-1.56,14.93c-.65,3.43-1.55,5.8-2.7,7.09a5.5,5.5,0,0,1-4.55,1.83,5.57,5.57,0,0,1-4.42-2.55c-1.21-1.63-2.14-4.25-2.87-7.84a94,94,0,0,1-1.38-14.06q-.33-8.69.11-21.2a159.1,159.1,0,0,1,2.23-22.89q1.72-9.45,4.84-14.81c2.06-3.58,4.48-5.84,7.25-6.81l-2.85-23.12a24.64,24.64,0,0,0-10.84,7.2,45,45,0,0,0-8.13,13.79,97.88,97.88,0,0,0-5.25,20.1,208,208,0,0,0-2.38,26,219.9,219.9,0,0,0,.74,30.85q1.38,12.73,4.57,20.89t8.12,12.08a18.77,18.77,0,0,0,11.31,4.16A16.77,16.77,0,0,0,743.2,499q4.86-3.88,7.85-12.61T755,463.48l3.3-48.67a112.12,112.12,0,0,1,1.6-13.21c.63-3.14,1.49-5.36,2.56-6.7a4.82,4.82,0,0,1,4.12-1.9,5.21,5.21,0,0,1,4.08,2.36,19.5,19.5,0,0,1,2.76,7.22,76.64,76.64,0,0,1,1.37,13q.29,8.1-.12,19.83-.71,20.26-4,30.52c-2.2,6.83-5.29,11-9.19,12.44l2.83,23q7.62-2.46,13.12-10.42T786,469.34q3.11-13.68,3.79-33.48A201.59,201.59,0,0,0,789.06,407.57Z" transform="translate(-54.36 -53.63)"/><rect class="cls-1" x="686.45" y="560.82" width="21.18" height="79.72" transform="translate(-239.18 809.71) rotate(-57.34)"/><polygon class="cls-1" points="528.23 609.9 528.23 609.9 457.04 649.42 464.89 663.55 536.09 624.04 566.93 679.6 585.44 669.31 546.77 599.61 528.23 609.9"/><polygon class="cls-1" points="360.04 658.22 361.33 737.93 382.52 737.59 381.21 657.88 360.04 658.22"/><polygon class="cls-1" points="256.93 638.71 170.46 589.86 163.23 602.64 249.7 651.5 240.46 667.86 162.22 623.66 154.99 636.45 233.23 680.65 224.94 695.32 139.17 646.86 131.94 659.65 217.71 708.11 217.71 708.12 235.36 718.09 274.58 648.68 256.93 638.71 256.93 638.71"/><polygon class="cls-1" points="57.56 532.81 81.86 429.04 81.82 428.93 81.82 428.93 81.81 428.89 80.57 425.51 80.55 425.51 74.73 409.82 0 437.56 7.09 456.68 62.46 436.12 38.05 540.06 45.16 559.17 119.89 531.42 112.8 512.3 57.56 532.81"/><path class="cls-1" d="M78.13,364.71a33.72,33.72,0,0,0,12.44,8,34.54,34.54,0,0,0,12.19,2.38,31.87,31.87,0,0,0,11.81-2.21,42.24,42.24,0,0,0,11.25-6.68A64.68,64.68,0,0,0,136.39,355a108.71,108.71,0,0,0,9.71-15.44A175.85,175.85,0,0,0,154.83,320q6.88-18.11,9-32.16t-.64-24.25a30.37,30.37,0,0,0-10.35-16.24l-12.21,19.61a15.9,15.9,0,0,1,6,9.9q1.34,6.41-.43,15.67a129.16,129.16,0,0,1-6.49,21.72,153.42,153.42,0,0,1-7.4,16.74,68.66,68.66,0,0,1-7.83,12.13,37.72,37.72,0,0,1-8.25,7.59,19.26,19.26,0,0,1-8.69,3.15,21.78,21.78,0,0,1-17-6.47A20,20,0,0,1,86,339.19,33.38,33.38,0,0,1,84.88,328a77,77,0,0,1,2.25-14.25,148.05,148.05,0,0,1,5.53-17.45,126.46,126.46,0,0,1,9.37-20q4.81-8,10-12a17.67,17.67,0,0,1,10.92-4l3.83-22.91a28.59,28.59,0,0,0-18.09,5.43q-8.67,6-16.52,18A156,156,0,0,0,77.54,290.6a167.22,167.22,0,0,0-7.32,24.26,94.62,94.62,0,0,0-2.31,20.62,52.54,52.54,0,0,0,2.66,16.73A33.36,33.36,0,0,0,78.13,364.71Z" transform="translate(-54.36 -53.63)"/><polygon class="cls-1" points="186.12 125.78 176.81 109.46 254.84 64.9 247.55 52.14 169.52 96.7 161.16 82.06 246.71 33.22 239.43 20.45 153.88 69.31 153.88 69.3 136.28 79.35 175.81 148.58 193.41 138.53 193.41 138.53 279.64 89.29 272.36 76.53 186.12 125.78"/></svg>