<?xml version="1.0" encoding="UTF-8"?>
<svg width="256px" height="139px" viewBox="0 0 256 139" version="1.1" xmlns="http://www.w3.org/2000/svg" xmlns:xlink="http://www.w3.org/1999/xlink">
    <!-- Generator: Sketch 52.6 (67491) - http://www.bohemiancoding.com/sketch -->
    <title>Group</title>
    <desc>Created with Sketch.</desc>
    <defs>
        <polygon id="path-1" points="0 0.0221294118 12.7387055 0.0221294118 12.7387055 10.6130392 0 10.6130392"></polygon>
        <polygon id="path-3" points="0.4496 0.517333333 11.4329333 0.517333333 11.4329333 17.4766667 0.4496 17.4766667"></polygon>
        <polygon id="path-5" points="0.475006946 0.155696957 13.566 0.155696957 13.566 10.5180463 0.475006946 10.5180463"></polygon>
        <polygon id="path-7" points="0.0019827201 0.220896077 11.5975361 0.220896077 11.5975361 13 0.0019827201 13"></polygon>
    </defs>
    <g id="Page-1" stroke="none" stroke-width="1" fill="none" fill-rule="evenodd">
        <g id="Mobile" transform="translate(-23.000000, -1264.000000)">
            <g id="Group" transform="translate(23.000000, 1260.000000)">
                <text id="Powered-by" font-family="TRYGrtskVariable-ExaRegular, TRY Grtsk Variable" font-size="18" font-weight="normal" fill="#039681">
                    <tspan x="0" y="18">Powered by</tspan>
                </text>
                <g id="Group-37" transform="translate(0.000000, 44.000000)">
                    <g id="Group-3" transform="translate(0.000000, 45.033224)">
                        <mask id="mask-2" fill="white">
                            <use xlink:href="#path-1"></use>
                        </mask>
                        <g id="Clip-2"></g>
                        <path d="M12.737985,5.31765882 C12.779585,2.60001176 11.015485,0.398717647 8.586435,0.0221294118 L8.553935,2.17424706 C9.869535,2.46542353 11.059035,3.52530588 11.033685,5.17854118 C11.006385,6.99095294 9.436635,8.46171765 6.319885,8.41448235 C3.248635,8.36854118 1.701635,6.84924706 1.728935,5.03748235 C1.752335,3.54277647 2.815085,2.44924706 4.321135,2.20012941 L4.353635,0.0939529412 C2.143635,0.242129412 0.044785,2.09077647 0.000585,4.92165882 C-0.052715,8.40865882 2.646735,10.5562471 6.286085,10.6118941 C10.016435,10.6675412 12.686635,8.69207059 12.737985,5.31765882" id="Fill-1" fill="#FFFFFF" mask="url(#mask-2)"></path>
                    </g>
                    <path d="M6.09492461,32.3871223 L13.6857082,36.1832006 L12.1790189,39.2445955 L13.757698,40.0332242 L18,31.4148228 L16.4206838,30.6255519 L14.5980038,34.330437 L10.8220429,32.442352 C8.46485453,31.2632623 7.50286685,29.7784825 8.5234657,27.7048001 L9.42556806,25.8719449 L7.74750478,25.0332242 L6.83584625,26.8859878 C6.18156721,28.2147115 6.38479507,29.6211421 7.32639626,30.74436 L5.40879168,29.7855468 L3,34.6785125 L4.57867913,35.4684256 L6.09492461,32.3871223 Z" id="Fill-4" fill="#FFFFFF"></path>
                    <path d="M19.0952773,13.5195082 C20.7477259,12.2507439 22.5376653,12.7359513 23.7392717,14.2563506 L18.6770492,18.1442378 C17.3053379,16.3092945 17.5656113,14.6935978 19.0952773,13.5195082 M25.8163433,21.8234671 C28.0315452,20.1224386 28.5105251,17.7555736 27.4835001,15.7125954 L25.8131458,16.9950625 C26.3247398,18.2955926 26.1482399,19.4864994 24.7419959,20.5659144 C23.247502,21.713221 21.2088,21.3077397 19.7123876,19.4584707 L26.515948,14.2345505 C23.9778024,10.8530479 20.8014433,10.0987654 18.0426727,12.2183553 C15.5454546,14.134893 15.2493696,17.3606809 17.6461874,20.3223764 C19.8505179,23.044894 22.9507775,24.0234058 25.8163433,21.8234671" id="Fill-6" fill="#FFFFFF"></path>
                    <path d="M42.6862906,9.34014255 C43.427128,12.4816049 41.8043732,13.7370316 39.932221,14.146284 C38.4485404,14.4705971 37.4489449,13.9950665 37.1841691,12.8747703 C36.7856681,11.1837086 38.9480039,10.1798821 42.60873,9.01003805 L42.6862906,9.34014255 Z M36.1959402,7.87172447 C35.9900034,6.39172377 36.66799,5.29716673 38.5622068,4.88276653 C40.1602224,4.53335767 41.4693917,4.89434915 41.9508023,6.93675011 L42.0704863,7.44188079 C37.1734711,9.06666416 34.2723038,10.6013605 34.9355806,13.4127184 C35.4383872,15.5439194 37.5084526,16.3843024 39.7222725,15.9004065 C42.004961,15.4017106 43.0961582,14.3322493 43.5595159,12.9371877 L43.9914482,14.6675016 L46,14.2286492 C45.744585,13.4532575 45.231749,11.7866481 44.7877815,9.80473408 L44.1318596,6.92195011 C43.4050633,3.63956595 41.6024482,2.50897411 38.2018175,3.25219185 C35.6456611,3.81073125 33.6544936,5.74760173 34.05032,8.34017686 L36.1959402,7.87172447 Z" id="Fill-8" fill="#FFFFFF"></path>
                    <g id="Group-12" transform="translate(53.000000, 0.033224)">
                        <mask id="mask-4" fill="white">
                            <use xlink:href="#path-3"></use>
                        </mask>
                        <g id="Clip-11"></g>
                        <path d="M7.16293333,1.01133333 L5.0736,0.517333333 L4.34826667,3.58266667 L0.8736,2.76066667 L0.4496,4.55466667 L3.92426667,5.37733333 L2.18293333,12.7346667 C1.5816,15.2786667 2.0936,15.9506667 4.31893333,16.4766667 L8.54226667,17.4766667 L8.96693333,15.6826667 L5.1976,14.7906667 C4.0396,14.5166667 4.04626667,14.1833333 4.34226667,12.934 L6.01293333,5.87133333 L11.0089333,7.05333333 L11.4329333,5.25933333 L6.4376,4.07733333 L7.16293333,1.01133333 Z" id="Fill-10" fill="#FFFFFF" mask="url(#mask-4)"></path>
                    </g>
                    <polygon id="Fill-13" fill="#FFFFFF" points="77.183741 24.6490627 74.4634199 22.5016241 81 14.4583503 76.6618038 11.0332242 75.5372309 12.4186684 78.2393297 14.5519961 72.8279733 21.210467 70.1245729 19.0764979 69 20.4613008 76.0585173 26.0332242"></polygon>
                    <polygon id="Fill-15" fill="#FFFFFF" points="84 11.2438032 82.4605021 10.0332242 81 11.8232462 82.5388855 13.0332242"></polygon>
                    <polygon id="Fill-17" fill="#FFFFFF" points="83.884058 36.0332242 97 34.6890444 96.0362319 32.7416575 86.0974967 33.98541 93.2549407 27.1222392 92.2200264 25.0332242 83 34.2487096"></polygon>
                    <g id="Group-21" transform="translate(85.000000, 46.033224)">
                        <mask id="mask-6" fill="white">
                            <use xlink:href="#path-5"></use>
                        </mask>
                        <g id="Clip-20"></g>
                        <path d="M8.20326667,8.40418333 L8.14726667,2.24357222 C10.5752667,2.31079444 11.7752667,3.47801667 11.7926,5.33885 C11.8106,7.34940556 10.2572667,8.40968333 8.20326667,8.40418333 M6.96193333,0.156016667 C3.25126667,0.184738889 0.443933333,1.93862778 0.475266667,5.42501667 C0.499933333,8.12062778 2.19593333,9.90446111 4.5806,10.3566833 L4.56193333,8.32473889 C3.1346,7.92935 2.2406,7.08051667 2.2246,5.36940556 C2.20793333,3.55073889 3.85393333,2.25457222 6.37393333,2.23562778 L6.4486,10.5131278 C10.9306,10.6292389 13.5966,8.68346111 13.5659333,5.32540556 C13.5386,2.28818333 10.9986,0.125461111 6.96193333,0.156016667" id="Fill-19" fill="#FFFFFF" mask="url(#mask-6)"></path>
                    </g>
                    <path d="M95.9427095,67.8352964 L94.4301797,67.0208467 L92.9022284,70.0466737 L86.7003624,66.7047536 C84.5555556,65.5493567 83.8356851,65.8654498 82.8567353,67.8040694 L81,71.4831131 L82.5131467,72.2982 L84.1700208,69.0149101 C84.6789267,68.0067259 84.9774848,68.0908475 86.0304572,68.658668 L91.9843473,71.8661211 L89.7871077,76.2174999 L91.3002545,77.0332242 L93.4962603,72.681208 L96.081502,74.0736747 L97,72.2542274 L94.4153751,70.8617607 L95.9427095,67.8352964 Z" id="Fill-22" fill="#FFFFFF"></path>
                    <path d="M74.0886667,79.2578298 L78.1953333,84.4029402 C79.814,86.4294387 79.844,88.1524671 78.298,89.2578298 C76.436,90.5884292 75.2973333,89.3821201 74.0746667,87.848997 L69.7133333,82.3865365 L68,83.6111421 L72.8113333,89.6376406 C74.4853333,91.7341705 76.4026667,92.7442652 78.8233333,91.0136658 C80.3686667,89.908303 80.7273333,88.5997857 80.5873333,87.3991548 L84.2873333,92.0332242 L86,90.8086185 L75.8013333,78.0332242 L74.0886667,79.2578298 Z" id="Fill-24" fill="#FFFFFF"></path>
                    <g id="Group-28" transform="translate(52.000000, 86.033224)">
                        <mask id="mask-8" fill="white">
                            <use xlink:href="#path-7"></use>
                        </mask>
                        <g id="Clip-27"></g>
                        <path d="M6.84,11.15816 C4.69666667,11.61446 3.24666667,10.36256 2.83066667,8.40216 L9.39666667,7.00336 C9.824,9.33491 8.824,10.73631 6.84,11.15816 M4.42533333,0.37726 C1.55266667,0.98826 -0.004,2.99741 0.002,5.37121 L2.16866667,4.91036 C2.298,3.46151 3.02066667,2.42346 4.84466667,2.03476 C6.78266667,1.62201 8.504,2.90836 9.042,5.30881 L0.218,7.18796 C1.01533333,11.49031 3.63933333,13.60931 7.21866667,12.84751 C10.456,12.15786 12.2433333,9.26211 11.382,5.41671 C10.5906667,1.88201 8.14133333,-0.41444 4.42533333,0.37726" id="Fill-26" fill="#FFFFFF" mask="url(#mask-8)"></path>
                    </g>
                    <path d="M42.7042958,93.3793376 C41.9605961,96.6082243 40.1729877,97.572904 38.444925,97.1164749 C36.716242,96.6600459 35.5526218,94.9160485 36.2957012,91.6864975 C37.0394009,88.4582753 38.8270092,87.4935956 40.5556922,87.9500246 C42.283755,88.4064536 43.4473752,90.1511154 42.7042958,93.3793376 M40.9563845,86.2113422 C38.3630498,85.5263665 35.2654384,86.7435106 34.2513025,91.1463566 C33.2371666,95.5492026 35.4515184,98.1708459 38.0442328,98.8551573 C40.6369472,99.540133 43.7351789,98.3223246 44.7486945,93.9194786 C45.7628304,89.5172969 43.5484786,86.8956536 40.9563845,86.2113422" id="Fill-29" fill="#FFFFFF"></path>
                    <path d="M20.4087656,78.4569079 L23.6184158,81.1621064 L20.9266586,84.5668564 C19.2462405,86.6920848 17.5806192,87.3291883 15.7837555,85.8144897 L14.1959791,84.476506 L13,85.9898759 L14.6051468,87.3424751 C15.7560917,88.313078 17.175955,88.4300021 18.4838762,87.7304505 L17.1167672,89.4597314 L21.3564133,93.0332242 L22.4816244,91.6102047 L19.8123844,89.3600802 L25.2235625,82.51537 L27.8747889,84.750879 L29,83.3271953 L21.5339767,77.0332242 L20.4087656,78.4569079 Z" id="Fill-31" fill="#FFFFFF"></path>
                    <path d="M16.8215961,67.9813255 C18.6396073,67.8154137 18.9521576,68.106542 19.4849571,69.216586 L20.407967,71.1386588 L22,70.3986295 L20.9910547,68.2987493 C19.9063589,66.039218 18.6937148,65.8758105 16.1964956,66.114974 L3,67.422234 L3.90454972,69.3048636 L13.6260721,68.2549235 L6.65448271,75.0316389 L7.61568614,77.0332242 L16.5427834,68.0145079 L16.8215961,67.9813255 Z" id="Fill-33" fill="#FFFFFF"></path>
                    <polygon id="Fill-35" fill="#FFFFFF" points="57 49.7237138 51.4082409 49.7237138 51.4082409 44.0332242 47.6209381 44.0332242 47.6209381 49.7237138 42 49.7237138 42 53.3427345 47.6209381 53.3427345 47.6209381 59.0332242 51.4082409 59.0332242 51.4082409 53.3427345 57 53.3427345"></polygon>
                </g>
                <g id="cap-1" transform="translate(130.000000, 69.000000)" fill="#FFFFFF" fill-rule="nonzero">
                    <path d="M33.233099,8.85615704 L33.7517887,8.75262599 C52.3439332,5.45113608 91.0036062,0.867011577 99.3084048,9.12073637 C101.844221,11.6284883 101.239083,14.872461 98.2998415,18.6858544 C99.9246358,19.7523659 101.079288,21.3985789 101.527244,23.287234 C113.01334,15.6604472 120.736053,8.38451562 117.087935,4.36406013 C108.898401,-4.68340266 56.1246048,3.45528764 33.6883933,8.35000527 L33.1639403,8.46503977 C33.0574053,8.48266104 32.9852364,8.58298159 33.0025702,8.68935702 C33.0202646,8.79883388 33.1233391,8.87341384 33.233099,8.85615704 Z" id="Path"></path>
                    <path d="M82.1340356,32.299585 C77.0066147,36.2457105 70.8992867,40.3894512 64.3418852,44.7369823 L64.0855141,44.90372 C64.0413224,44.93487 64.0112252,44.9846995 64.0025591,45.0410616 C63.993893,45.0974237 64.0074543,45.1551405 64.039937,45.2001426 C64.101805,45.2930471 64.2209626,45.3150321 64.3077024,45.2495463 L64.5298906,45.1260369 C70.0845965,41.9827225 76.4938726,38.2465629 82.8917544,34.4177713 L83,34.3560166 C82.6346759,33.7088861 82.3474736,33.0136137 82.1454299,32.287234 L82.1340356,32.299585 Z" id="Path"></path>
                    <path d="M28.8611995,31.8949019 L29.7543954,26.5872951 C29.8740417,26.0061392 29.9557775,25.4170248 29.9990287,24.8240902 C30.0388527,23.3967338 28.8611995,22.287234 25.1575655,22.287234 C22.8482115,22.3063556 20.5434179,22.5068203 18.2623207,22.8869636 L17.2894767,25.651717 C19.0758685,25.1779306 22.5462475,24.5482146 24.3952199,24.9320415 C25.0836066,25.0759766 25.2485918,25.3818387 25.1518763,25.9275926 C25.100674,26.2334547 24.9641345,26.3953817 24.6114075,26.5273222 C24.065891,26.7544026 23.4899938,26.8899862 22.9046637,26.929141 C21.1979199,27.0790734 19.9406187,27.2350031 19.0360445,27.3909328 C18.3230155,27.480498 17.626833,27.6826718 16.9708845,27.9906624 C16.4533536,28.2228341 15.9923922,28.5754916 15.622557,29.0221972 C15.2715704,29.4688846 15.0555794,30.0161761 15.0024401,30.5934887 C14.9683052,31.4570993 15.2925865,31.8709128 15.9582166,32.4946315 C16.6238466,33.1183503 17.5625557,33.2862746 19.2237863,33.2862746 C20.0547965,33.2986251 20.8835353,33.1916916 21.6871865,32.9684179 C22.5522678,32.7099759 23.3821363,32.3350539 24.1562758,31.8529209 L24.201789,33.2203043 L29.3220203,33.2203043 L29.3220203,33.010399 C28.9441,32.7937942 28.754204,32.3341178 28.8611995,31.8949019 Z M24.4407331,29.5259701 C24.3509881,29.7936848 24.1983126,30.033039 23.9969797,30.2216564 C23.6918143,30.4901751 23.3401963,30.6938363 22.9615552,30.821386 C22.5533606,30.9596599 22.127316,31.0304673 21.6985648,31.0312913 C21.2709914,31.0683826 20.8423439,30.9746779 20.4640201,30.761413 C20.2387121,30.6111956 20.1271591,30.3280072 20.185252,30.0537321 C20.2299543,29.7743083 20.3823401,29.5268364 20.6062488,29.3700404 C21.015899,29.1271392 21.4695074,28.9779641 21.9375089,28.9322378 C22.8648397,28.7763081 23.502024,28.6563622 23.8490619,28.5783973 C24.1367022,28.514744 24.4199137,28.4305886 24.6967447,28.3265109 C24.639208,28.7323649 24.5536434,29.13325 24.4407331,29.5259701 Z" id="Shape"></path>
                    <path d="M50.7423145,18.287234 C49.3745284,18.287234 48.1456581,18.9589608 48.0120852,19.7900803 C47.8785123,20.6211999 48.8669515,21.287234 50.2454235,21.287234 C51.6238954,21.287234 52.8420799,20.6155073 52.9863386,19.7900803 C53.1305973,18.9646534 52.1154435,18.287234 50.7423145,18.287234 Z" id="Path"></path>
                    <polygon id="Path" points="46 33.287234 51.1400679 33.287234 53 23.287234 47.8599321 23.287234"></polygon>
                    <path d="M69.159084,31.8598839 L69.1988955,33.2196695 L74.3175171,33.2196695 L74.3459539,33.039167 C73.9646147,32.8323974 73.7600366,32.3823284 73.8454665,31.9381017 L74.7554436,26.6072608 C74.8747737,26.0241662 74.9564811,25.4331611 75,24.8383362 C75,23.4063496 73.8625285,22.287234 70.1543715,22.287234 C67.8457692,22.3070174 65.5417422,22.5081287 63.2612944,22.8889091 L62.2944437,25.662631 C64.0802739,25.1933245 67.5381872,24.5555489 69.397953,24.940621 C70.0804359,25.0910397 70.2453693,25.4099275 70.1543715,25.9454183 C70.1031853,26.2522726 69.9610014,26.4147248 69.5856358,26.5470933 C69.038509,26.7667096 68.4634131,26.8985304 67.8794286,26.9381821 C66.1732214,27.0886009 64.9163154,27.2510531 64.0006509,27.4014719 C63.293575,27.5022286 62.6028156,27.7046569 61.9475149,28.0031469 C61.4410971,28.2332462 60.988698,28.5783316 60.6223606,29.013961 C60.2696508,29.4609242 60.0534822,30.0106154 60.0024387,30.5903496 C59.9683145,31.4567617 60.2924939,31.8659007 60.9636021,32.4976595 C61.6347102,33.1294183 62.5617495,33.2858538 64.2224578,33.2858538 C65.0552107,33.3008536 65.8859032,33.1935342 66.6907709,32.966966 C67.5563858,32.7156069 68.3864669,32.3433009 69.159084,31.8598839 Z M65.1779339,30.0548588 C65.2297364,29.777558 65.3830628,29.5331668 65.6044857,29.374966 C66.0089528,29.1289598 66.4592056,28.9790801 66.9239526,28.9357432 C67.8566792,28.773291 68.4936632,28.6649895 68.8349046,28.580755 C69.1249945,28.5118162 69.4116207,28.427475 69.6936956,28.3280515 C69.6294756,28.7343758 69.5421103,29.1362245 69.4320772,29.5314015 C69.3406232,29.7958371 69.1904294,30.0331443 68.9941506,30.2233278 C68.6877194,30.4939091 68.3341243,30.6983213 67.9533642,30.8250029 C67.546958,30.9617337 67.1229195,31.0307486 66.6964583,31.0295724 C66.2672862,31.065243 65.8373558,30.9713559 65.4566144,30.7588186 C65.2316591,30.6023886 65.1226992,30.3142124 65.1836212,30.0368086 L65.1779339,30.0548588 Z" id="Shape"></path>
                    <path d="M6.25317305,26.782759 C6.32307111,25.3980206 8.05304813,22.4851048 12.4449763,22.4851048 C13.8257268,22.4593951 15.1849407,22.8118849 16.3592678,23.5002118 L17,20.1128437 C15.4195662,19.5101638 13.7221269,19.2318723 12.0197631,19.2963446 C6.26482273,19.373581 0.737051034,21.8506629 0.0497200963,26.8930967 C-0.637610841,31.9355306 5.97940564,33.2982015 8.89182487,33.2871677 C10.5868529,33.2871677 12.3459541,33.2154482 13.9885585,33.0554585 L14.6584149,29.5632696 C13.2836959,29.8535407 11.8787978,29.9960413 10.4703561,29.9880698 C8.05887297,29.9880698 6.14832596,28.8571082 6.25317305,26.782759 Z" id="Path"></path>
                    <path d="M63,23.3816785 L60.4199185,23.3816785 L61.0023296,20.287234 L55.760629,21.3983452 L55.3995341,23.3983452 L53.3843914,23.3983452 L53,25.3927896 L54.9103087,25.3927896 L53.3960396,33.287234 C53.3960396,33.2594563 58.4863133,33.287234 58.4863133,33.287234 L60.0064065,25.387234 L62.5107746,25.387234 L63,23.3816785 Z" id="Path"></path>
                    <polygon id="Path" points="79.7365591 33.2758934 82 19.4289918 77.3870968 19.287234 75 33.287234"></polygon>
                    <path d="M45.6741577,24.5856066 C45.34543,23.797296 44.7121932,23.1530475 43.8997247,22.7803168 C43.0549767,22.3971986 42.1159304,22.2324729 41.1800873,22.3032433 C40.2041604,22.3086613 39.2388299,22.4928422 38.3386751,22.8453723 C37.6177591,23.0864606 36.9817728,23.508483 36.5004553,24.0651627 L36.8425846,22.4387755 L32.441295,22.4387755 L30,35.287234 L34.969572,35.287234 L35.7640077,30.9122526 C36.0103846,31.171138 36.2865279,31.403851 36.5874373,31.6061778 C36.8984097,31.7799866 37.2370693,31.9062655 37.5906298,31.9802468 C38.0980718,32.0907305 38.6179285,32.1435185 39.1389095,32.1374643 C40.6673308,32.2288782 42.1816614,31.816432 43.4184243,30.9718868 C44.7516849,30.0851816 45.6447431,28.7321048 45.8945121,27.2203538 C46.0895098,26.340322 46.0130923,25.4266084 45.6741577,24.5856066 Z M41.0351173,26.9059189 C40.9448404,27.3637499 40.7467637,27.7970749 40.4552372,28.1745009 C40.2084811,28.5127782 39.8703716,28.7839866 39.47524,28.960588 C39.0720757,29.1273964 38.6344639,29.2088507 38.1937051,29.1991248 C37.617919,29.2370078 37.0529286,29.0391768 36.6454253,28.6569957 C36.2916985,28.2829267 36.1989177,27.6811635 36.3554853,26.8462847 C36.4493173,26.2048944 36.8045828,25.6221975 37.3470802,25.2198976 C37.8600352,24.8601067 38.4861027,24.6694521 39.1273119,24.6777685 C39.7020045,24.6465195 40.2615001,24.8573392 40.6523965,25.2524253 C41.0427239,25.7205538 41.1738384,26.3334478 41.0061233,26.9059189 L41.0351173,26.9059189 Z" id="Shape"></path>
                    <path d="M120.997824,27.2608074 C120.941094,25.7076638 119.624969,25.0783231 118.212402,25.0783231 C114.910742,25.0783231 110.882943,29.1488294 111.036112,33.5253454 C111.036112,33.6292732 111.036112,33.7274273 111.036112,33.8255814 C110.644678,34.4491483 109.833446,35.6674133 109.186729,35.6674133 C108.971156,35.6674133 108.772603,35.5230691 108.76693,35.1593217 C108.791932,34.6082239 108.895114,34.063703 109.073269,33.5426667 L110.372376,28.8774624 C110.632939,28.0532065 110.796704,27.2004522 110.860251,26.3370045 C110.88746,25.9846205 110.759263,25.6381757 110.510419,25.3916039 C110.261575,25.1450321 109.917868,25.023882 109.57249,25.0610018 C108.279055,25.0610018 106.56015,26.0252211 102.923784,30.2862617 L102.872728,30.2862617 L103.332237,28.2077053 C103.576174,27.0529517 103.820112,25.8981982 104.058376,25.0610018 C102.721112,25.5360783 101.354807,25.921816 99.9681741,26.2157554 C99.8036584,22.0182262 97.1316959,19.287234 93.0925508,19.287234 C87.0054684,19.287234 82.8188265,24.8531462 83.006034,30.2920355 C83.1535309,34.5242073 85.8141475,37.2782945 89.8873303,37.2782945 C96.0254693,37.2782945 99.8717339,32.3821394 99.9681741,26.8855125 C100.308552,26.8393223 100.802099,26.7873584 101.029017,26.7873584 C101.386413,26.7873584 101.726791,26.8566436 101.74381,27.220391 C101.74381,27.4340204 101.369394,28.9871639 101.2843,29.3451375 L100.524124,32.8093982 C100.212111,34.2124238 99.8774068,35.6962821 99.5824131,36.8510357 L101.545256,36.8510357 L102.679847,31.4121464 C105.992854,27.8381841 107.291961,26.6834306 108.103194,26.6834306 C108.272516,26.6653108 108.440881,26.7255478 108.561818,26.847515 C108.682755,26.9694822 108.743475,27.1402823 108.727219,27.3127713 C108.65645,28.1516625 108.48889,28.9791573 108.227999,29.7781701 L107.093408,33.7505224 C106.846313,34.4826908 106.701188,35.2464728 106.662263,36.0196131 C106.642865,36.374695 106.779092,36.7202663 107.034246,36.9632368 C107.289401,37.2062074 107.63724,37.3215869 107.984062,37.2782945 C109.322879,37.2782945 110.315647,35.9561017 111.183609,34.5703974 C111.540235,36.1972407 112.984629,37.3349615 114.621421,37.2782945 C116.964352,37.2782945 118.966906,35.6443182 119.948327,33.6119519 L119.556893,33.3405849 C118.785371,34.5819449 117.253673,35.8348525 115.716302,35.8348525 C115.004186,35.8828254 114.305502,35.6210873 113.793877,35.1146816 C113.282252,34.6082759 113.005717,33.9047447 113.032993,33.1789194 C113.001976,32.7421627 113.042231,32.3031928 113.152125,31.8798216 C116.317635,31.7932151 121.116956,30.725068 120.997824,27.2608074 Z M117.855006,25.6672475 C118.210799,25.6496648 118.556227,25.792006 118.799783,26.0565636 C119.043339,26.3211212 119.160444,26.6811972 119.120075,27.0414042 C119.20517,29.2931736 116.63532,31.2966711 113.33366,31.2966711 C113.702402,29.6626948 115.841107,25.6499262 117.855006,25.6499262 L117.855006,25.6672475 Z M90.2957832,36.2794327 C87.708915,36.2794327 85.7290532,33.6696896 85.621267,30.5056649 C85.4737701,26.2908144 88.2591918,20.0551452 92.5649658,20.0551452 C95.1461611,20.0551452 97.1827525,22.6648882 97.2905386,25.8577818 C97.4380355,30.0206684 95.3050038,36.2794327 90.2957832,36.2794327 Z" id="Shape"></path>
                    <path d="M124.933333,21.8506143 C124.933333,21.4562481 124.62963,21.287234 124.007407,21.287234 L123,21.287234 L123,23.287234 L123.407407,23.287234 L123.407407,22.4139946 L123.859259,22.4139946 L124.548148,23.2816002 L125,23.2816002 L124.259259,22.402727 C124.44668,22.4014814 124.625154,22.341582 124.75269,22.2371214 C124.880225,22.1326609 124.945564,21.9928616 124.933333,21.8506143 Z M123.407407,22.1604735 L123.407407,21.5407552 L123.940741,21.5407552 C124.222222,21.5407552 124.518519,21.5858256 124.518519,21.8337129 C124.518519,22.0816002 124.214815,22.1604735 123.874074,22.1604735 L123.407407,22.1604735 Z" id="Shape"></path>
                    <path d="M123.987012,20.2873294 C122.88333,20.294502 121.994091,21.1943848 122.000059,22.2980661 C122.006028,23.4017475 122.904947,24.2919604 124.008643,24.2871961 C125.112339,24.2824318 126.003539,23.3844915 125.999979,22.2807998 C126.000004,21.748706 125.787305,21.2386844 125.40923,20.8642711 C125.031155,20.4898578 124.519085,20.2821297 123.987012,20.2873294 Z M123.987012,23.9560942 C123.307712,23.9772497 122.683442,23.5843463 122.408695,22.9627323 C122.133947,22.3411182 122.263615,21.6149867 122.736529,21.126883 C123.209442,20.6387792 123.931117,20.4862223 124.561111,20.7411793 C125.191105,20.9961363 125.60355,21.6076691 125.603879,22.2872932 C125.61795,22.7250375 125.453835,23.1497637 125.149075,23.4643125 C124.844315,23.7788614 124.424986,23.9563203 123.987012,23.9560942 Z" id="Shape"></path>
                </g>
            </g>
        </g>
    </g>
</svg>